<?xml version="1.0" encoding="UTF-8" standalone="no"?>
<!DOCTYPE svg PUBLIC "-//W3C//DTD SVG 1.1//EN" "http://www.w3.org/Graphics/SVG/1.1/DTD/svg11.dtd">
<svg width="100%" height="100%" viewBox="0 0 2481 3071" version="1.1" xmlns="http://www.w3.org/2000/svg" xmlns:xlink="http://www.w3.org/1999/xlink" xml:space="preserve" xmlns:serif="http://www.serif.com/" style="fill-rule:evenodd;clip-rule:evenodd;stroke-linecap:round;stroke-linejoin:round;stroke-miterlimit:1.5;">
    <path d="M2480.315,131.163C2480.315,131.163 2094.185,257.727 2041.06,299.915C1987.934,342.103 1631.68,604.606 1631.68,604.606C1631.68,604.606 1556.68,678.044 1470.741,704.607C1384.803,731.169 1212.926,745.232 1145.738,942.109C1145.738,942.109 1094.175,1009.297 961.361,1135.861L634.013,1451.88C634.013,1451.88 498.074,1646.414 399.636,1879.229C301.197,2112.044 323.073,2063.606 323.073,2063.606C323.073,2063.606 276.197,2208.92 426.199,2122.981L1368.396,1471.412C1368.396,1471.412 1419.959,1452.578 1394.959,1535.433C1369.959,1618.288 1474.647,1588.6 1474.647,1588.6L1911.762,1515.162C1911.762,1515.162 2014.189,1501.1 2132.941,1433.911C2251.692,1366.723 2480.315,1271.41 2480.315,1271.41" style="fill:none;stroke:black;stroke-width:142.08px;"/>
</svg>
