<?xml version="1.0" encoding="UTF-8" standalone="no"?>
<!DOCTYPE svg PUBLIC "-//W3C//DTD SVG 1.1//EN" "http://www.w3.org/Graphics/SVG/1.1/DTD/svg11.dtd">
<svg width="100%" height="100%" viewBox="0 0 2481 3071" version="1.1" xmlns="http://www.w3.org/2000/svg" xmlns:xlink="http://www.w3.org/1999/xlink" xml:space="preserve" xmlns:serif="http://www.serif.com/" style="fill-rule:evenodd;clip-rule:evenodd;stroke-linecap:round;stroke-linejoin:round;stroke-miterlimit:1.5;">
    <g transform="matrix(1.070572,0,0,1.090132,-176.7985,-0)">
        <path d="M2481.956,2523.504C2483.35,2533.37 1102.786,1955.247 975.861,1476.063C923.603,1278.773 895.54,1177.019 796.11,680.801C796.11,680.801 765.028,566.875 652.581,566.875C540.133,566.875 548.528,564.202 501.937,560.807C452.139,557.178 457.116,542.455 430.899,382.319C415.47,288.073 363.431,0 363.431,0L204.577,0L281.327,499.075C281.327,499.075 302.745,709.691 506.221,706.121C709.697,702.551 667.358,749.267 695.752,876.13C746.063,1100.913 821.952,1538.237 910.679,1673.5C1029.752,1855.026 1556.62,2363.714 2481.956,2700.836C2481.956,2700.836 2480.561,2513.637 2481.956,2523.504Z" style="stroke:black;stroke-width:0.93px;"/>
    </g>
    <g transform="matrix(1.121308,-0.024171,0.024445,1.133986,-361.433693,-53.862527)">
        <path d="M1283.325,1804.925L1393.241,1903.09L1515.809,1996.659C1515.809,1996.659 2026.907,2293.014 2480.315,2477.079L2480.315,2435.246C2480.315,2435.246 1840.758,2192.54 1283.325,1804.925Z" style="fill-opacity:0.64;"/>
    </g>
</svg>
