<?xml version="1.0" encoding="UTF-8" standalone="no"?>
<!DOCTYPE svg PUBLIC "-//W3C//DTD SVG 1.1//EN" "http://www.w3.org/Graphics/SVG/1.1/DTD/svg11.dtd">
<svg width="100%" height="100%" viewBox="0 0 2481 3071" version="1.1" xmlns="http://www.w3.org/2000/svg" xmlns:xlink="http://www.w3.org/1999/xlink" xml:space="preserve" xmlns:serif="http://www.serif.com/" style="fill-rule:evenodd;clip-rule:evenodd;stroke-linejoin:round;stroke-miterlimit:2;">
    <g transform="matrix(1.090482,0,0,1.054001,-184.812842,-516.207153)">
        <path d="M1795.752,3403.292C1795.752,3403.292 1813.183,3181.053 1656.309,2880.378C1499.435,2579.703 1395.78,2393.087 1302.708,2279.452C1160.775,2106.161 986.511,1999.84 770.669,1922.053C465.201,1811.966 213.605,1507.902 299.35,1135.593C378.794,790.64 715.356,629.878 924.057,616.863C1132.757,603.848 1453.34,675.142 1551.552,1057.504C1600.719,1248.923 1718.874,1787.087 1844.373,1987.886C1969.872,2188.685 1958.016,2320.326 2028.438,2472.931C2103.275,2635.101 2192.914,2810.17 2293.391,2960.907C2379.321,3089.82 2443.99,3403.292 2443.99,3403.292L2327.274,3403.292C2327.274,3403.292 2253.552,3109.538 2172.429,2983.044C2068.992,2821.753 1953.149,2725.945 1838.806,2338.292C1787.722,2165.108 1661.926,1978.511 1599.022,1787.403C1492.818,1464.744 1473.23,1259.107 1428.842,1109.098C1350.02,842.718 1056.334,791.726 977.045,793.956C943.531,794.899 564.389,830.089 494.571,1189.975C427.168,1537.408 699.075,1706.183 859.58,1785.455C974.674,1842.299 1133.222,1921.496 1202.944,1980.063C1272.665,2038.629 1387.217,2100.458 1465.305,2237.112C1543.393,2373.767 1768.668,2810.134 1768.668,2810.134C1768.668,2810.134 1852.107,2999.731 1880.222,3098.591C1908.338,3197.45 1937.361,3403.292 1937.361,3403.292L1795.752,3403.292Z"/>
    </g>
</svg>
